<svg width="791" height="462" viewBox="0 0 791 462" fill="none" xmlns="http://www.w3.org/2000/svg">
<path d="M231.624 247V204.952H163.656V181.336L239.976 67.576H266.472V175.576H290.376V205.24H266.472V247H231.624ZM199.656 176.152H232.488V123.736L199.656 176.152ZM519.624 247V204.952H451.656V181.336L527.976 67.576H554.472V175.576H578.376V205.24H554.472V247H519.624ZM487.656 176.152H520.488V123.736L487.656 176.152Z" fill="#0081CA"/>
<path d="M369 250.456C349.8 250.456 334.44 242.488 322.92 226.552C311.592 210.616 305.928 187.864 305.928 158.296C305.928 128.92 311.592 105.976 322.92 89.464C334.44 72.952 349.8 64.696 369 64.696C388.2 64.696 403.464 72.952 414.792 89.464C426.312 105.976 432.072 128.92 432.072 158.296C432.072 187.864 426.312 210.616 414.792 226.552C403.464 242.488 388.2 250.456 369 250.456ZM339.336 158.296C339.336 164.824 339.528 170.776 339.912 176.152L393.192 115.096C388.392 100.696 380.328 93.496 369 93.496C358.824 93.496 351.336 99.16 346.536 110.488C341.736 121.816 339.336 137.752 339.336 158.296ZM369 223.096C379.176 223.096 386.664 217.528 391.464 206.392C396.264 195.064 398.664 179.032 398.664 158.296C398.664 151.768 398.472 145.624 398.088 139.864L344.52 201.208C349.512 215.8 357.672 223.096 369 223.096Z" fill="#FF8F34"/>
<path d="M38.3125 372.062H52.1992C61.457 372.062 67.4219 374.805 70.0938 380.289C71.0547 382.305 71.5352 384.695 71.5352 387.461C71.5352 390.227 71.043 392.594 70.0586 394.562C69.0742 396.531 67.75 398.148 66.0859 399.414C62.8516 401.852 58.5273 403.07 53.1133 403.07H45.3438V421H38.3125V372.062ZM51.7422 397.445C55.9844 397.445 59.125 396.625 61.1641 394.984C63.2031 393.344 64.2227 390.789 64.2227 387.32C64.2227 382.703 62.0781 379.727 57.7891 378.391C56.2891 377.922 54.4727 377.688 52.3398 377.688H45.3438V397.445H51.7422ZM81.4492 414.531C80.6758 413.195 80.0547 411.625 79.5859 409.82C79.1406 408.016 78.918 405.66 78.918 402.754C78.918 399.848 79.5391 397.176 80.7812 394.738C82.0469 392.277 83.6875 390.262 85.7031 388.691C89.6172 385.668 94.4805 384.156 100.293 384.156C103.316 384.156 105.602 384.227 107.148 384.367C107.148 384.367 108.285 384.484 110.559 384.719V421H104.23L103.949 416.816C102.543 418.691 100.398 420.086 97.5156 421C96.4141 421.352 95.2773 421.527 94.1055 421.527C92.957 421.527 91.8203 421.41 90.6953 421.176C89.5703 420.941 88.4453 420.555 87.3203 420.016C86.2188 419.477 85.1641 418.762 84.1562 417.871C83.1484 416.957 82.2461 415.844 81.4492 414.531ZM103.527 389.887C102.027 389.699 100.527 389.605 99.0273 389.605C97.5508 389.605 95.9688 389.875 94.2812 390.414C92.5938 390.93 91.1523 391.75 89.957 392.875C87.4727 395.219 86.2305 398.793 86.2305 403.598C86.2305 408.145 87.2969 411.508 89.4297 413.688C91.0469 415.305 92.9922 416.113 95.2656 416.113C98.1953 416.113 100.609 415.047 102.508 412.914C102.977 412.375 103.316 411.895 103.527 411.473V389.887ZM142.445 434.852C140.406 435.367 137.781 435.625 134.57 435.625C131.383 435.625 129.051 435.391 127.574 434.922V428.664C129.426 429.461 131.688 429.859 134.359 429.859C137.055 429.883 139.035 429.707 140.301 429.332C141.566 428.957 142.562 428.348 143.289 427.504C144.602 425.98 145.258 423.227 145.258 419.242V417.379C143.477 419.16 141.133 420.402 138.227 421.105C137.055 421.387 135.883 421.527 134.711 421.527C133.539 421.527 132.391 421.398 131.266 421.141C130.164 420.883 129.062 420.473 127.961 419.91C126.859 419.324 125.805 418.574 124.797 417.66C123.789 416.723 122.898 415.562 122.125 414.18C120.391 411.18 119.523 407.488 119.523 403.105C119.477 399.051 120.648 395.488 123.039 392.418C125.102 389.746 127.938 387.672 131.547 386.195C134.828 384.836 138.379 384.156 142.199 384.156C146.02 384.156 149.383 384.344 152.289 384.719V419.242C152.289 428.008 149.008 433.211 142.445 434.852ZM145.258 389.852C143.758 389.664 142.281 389.57 140.828 389.57C139.375 389.57 137.746 389.84 135.941 390.379C134.137 390.918 132.555 391.738 131.195 392.84C128.219 395.254 126.73 398.676 126.73 403.105C126.73 407.91 127.891 411.414 130.211 413.617C131.945 415.281 134.066 416.113 136.574 416.113C139.598 416.113 142.141 415.047 144.203 412.914C144.695 412.375 145.047 411.895 145.258 411.473V389.852ZM180.73 421.562C167.465 421.562 160.832 415.082 160.832 402.121C160.832 396.543 162.672 392.078 166.352 388.727C169.656 385.68 173.43 384.156 177.672 384.156C182.289 384.156 185.898 385.703 188.5 388.797C190.914 391.68 192.121 395.535 192.121 400.363V403.105H168.145C168.145 409.738 170.852 413.793 176.266 415.27C177.555 415.621 179.535 415.797 182.207 415.797C184.902 415.797 187.539 415.434 190.117 414.707V420.648C187.539 421.258 184.41 421.562 180.73 421.562ZM185.09 397.938C185.09 395.688 184.469 393.789 183.227 392.242C181.773 390.461 179.77 389.57 177.215 389.57C174.52 389.57 172.328 390.426 170.641 392.137C169.094 393.73 168.32 395.664 168.32 397.938H185.09ZM426.227 390.203C422.734 390.203 419.629 391.387 416.91 393.754V421H409.879V384.719H416.383L416.875 388.656C420.695 385.656 424.645 384.156 428.723 384.156C433.035 384.156 436.199 385.445 438.215 388.023C440.324 390.742 441.379 395.125 441.379 401.172V421H434.348V401.172C434.348 395.359 432.777 391.891 429.637 390.766C428.629 390.391 427.492 390.203 426.227 390.203ZM449.57 402.789C449.57 397.094 451.387 392.477 455.02 388.938C458.418 385.633 462.625 383.98 467.641 383.98C472.562 383.98 476.676 385.633 479.98 388.938C483.496 392.453 485.254 397.07 485.254 402.789C485.254 408.484 483.484 413.078 479.945 416.57C476.594 419.898 472.48 421.562 467.605 421.562C462.66 421.562 458.465 419.898 455.02 416.57C451.387 413.078 449.57 408.484 449.57 402.789ZM456.883 402.789C456.883 408.789 458.805 412.867 462.648 415.023C464.008 415.773 465.637 416.148 467.535 416.148C469.434 416.148 471.039 415.773 472.352 415.023C473.664 414.25 474.742 413.242 475.586 412C477.156 409.609 477.941 406.539 477.941 402.789C477.941 396.836 476.055 392.758 472.281 390.555C470.969 389.781 469.398 389.395 467.57 389.395C465.742 389.395 464.148 389.781 462.789 390.555C461.453 391.305 460.352 392.301 459.484 393.543C457.75 395.98 456.883 399.062 456.883 402.789ZM506.945 415.445C507.719 415.727 508.891 415.867 510.461 415.867C512.031 415.867 513.344 415.68 514.398 415.305V420.93C513.906 421.047 513.191 421.117 512.254 421.141L510.039 421.211C509.547 421.211 509.172 421.211 508.914 421.211C504.391 421.211 501.051 419.734 498.895 416.781C497.16 414.391 496.293 411.227 496.293 407.289V390.098H491.09V386.793L496.293 384.719L497.98 375.719H503.324V384.719H514.574V390.098H503.324V407.254C503.324 411.848 504.531 414.578 506.945 415.445Z" fill="#0081CA"/>
<path d="M223.797 372.098H235.68C243.695 372.098 250.047 374.078 254.734 378.039C259.797 382.281 262.328 388.469 262.328 396.602C262.328 404.734 259.867 410.91 254.945 415.129C250.352 419.043 244.047 421 236.031 421H223.797V372.098ZM255.121 396.637C255.121 384.051 248.488 377.758 235.223 377.758H230.828V415.375H235.609C245.734 415.375 251.898 411.719 254.102 404.406C254.781 402.086 255.121 399.496 255.121 396.637ZM269.5 402.789C269.5 397.094 271.316 392.477 274.949 388.938C278.348 385.633 282.555 383.98 287.57 383.98C292.492 383.98 296.605 385.633 299.91 388.938C303.426 392.453 305.184 397.07 305.184 402.789C305.184 408.484 303.414 413.078 299.875 416.57C296.523 419.898 292.41 421.562 287.535 421.562C282.59 421.562 278.395 419.898 274.949 416.57C271.316 413.078 269.5 408.484 269.5 402.789ZM276.812 402.789C276.812 408.789 278.734 412.867 282.578 415.023C283.938 415.773 285.566 416.148 287.465 416.148C289.363 416.148 290.969 415.773 292.281 415.023C293.594 414.25 294.672 413.242 295.516 412C297.086 409.609 297.871 406.539 297.871 402.789C297.871 396.836 295.984 392.758 292.211 390.555C290.898 389.781 289.328 389.395 287.5 389.395C285.672 389.395 284.078 389.781 282.719 390.555C281.383 391.305 280.281 392.301 279.414 393.543C277.68 395.98 276.812 399.062 276.812 402.789ZM330.777 421.562C317.512 421.562 310.879 415.082 310.879 402.121C310.879 396.543 312.719 392.078 316.398 388.727C319.703 385.68 323.477 384.156 327.719 384.156C332.336 384.156 335.945 385.703 338.547 388.797C340.961 391.68 342.168 395.535 342.168 400.363V403.105H318.191C318.191 409.738 320.898 413.793 326.312 415.27C327.602 415.621 329.582 415.797 332.254 415.797C334.949 415.797 337.586 415.434 340.164 414.707V420.648C337.586 421.258 334.457 421.562 330.777 421.562ZM335.137 397.938C335.137 395.688 334.516 393.789 333.273 392.242C331.82 390.461 329.816 389.57 327.262 389.57C324.566 389.57 322.375 390.426 320.688 392.137C319.141 393.73 318.367 395.664 318.367 397.938H335.137ZM358.797 421.562C355.867 421.562 352.902 421.352 349.902 420.93V414.707C352.949 415.434 356.043 415.797 359.184 415.797C365.465 415.797 368.605 414.473 368.605 411.824C368.605 410.816 368.359 410.066 367.867 409.574C367.141 408.801 365.992 408.027 364.422 407.254L359.289 404.898C355.961 403.234 353.805 401.898 352.82 400.891C350.969 399.016 350.043 396.789 350.043 394.211C350.043 391.305 351.391 388.938 354.086 387.109C356.992 385.141 361.07 384.156 366.32 384.156C368.969 384.156 371.641 384.344 374.336 384.719V390.73C371.383 390.191 368.805 389.922 366.602 389.922C364.422 389.922 362.723 390.062 361.504 390.344C360.309 390.625 359.406 390.977 358.797 391.398C357.836 392.055 357.355 392.91 357.355 393.965C357.355 394.996 357.684 395.84 358.34 396.496C359.02 397.129 360.074 397.82 361.504 398.57L366.672 401.066C370.047 402.824 372.215 404.172 373.176 405.109C375.004 406.891 375.918 409.129 375.918 411.824C375.918 414.707 374.465 417.027 371.559 418.785C368.512 420.637 364.258 421.562 358.797 421.562ZM547.867 372.062H579.473V378.18H554.898V392.594H573.496V398.5H554.898V414.812H579.473V421H547.867V372.062ZM598.527 402.789L586.047 384.719H594.027L602.676 397.832L611.922 384.719H619.797L606.297 402.754L619.48 421H611.535L602.289 407.781L593.219 421H585.238L598.527 402.789ZM634.211 374.172C634.211 375.508 633.766 376.539 632.875 377.266C632.008 377.969 630.918 378.32 629.605 378.32C628.293 378.32 627.203 377.969 626.336 377.266C625.492 376.539 625.07 375.508 625.07 374.172C625.07 372.812 625.492 371.781 626.336 371.078C627.203 370.375 628.293 370.023 629.605 370.023C630.918 370.023 632.008 370.375 632.875 371.078C633.766 371.781 634.211 372.812 634.211 374.172ZM625.984 384.719H633.016V421H625.984V384.719ZM652.984 421.562C650.055 421.562 647.09 421.352 644.09 420.93V414.707C647.137 415.434 650.23 415.797 653.371 415.797C659.652 415.797 662.793 414.473 662.793 411.824C662.793 410.816 662.547 410.066 662.055 409.574C661.328 408.801 660.18 408.027 658.609 407.254L653.477 404.898C650.148 403.234 647.992 401.898 647.008 400.891C645.156 399.016 644.23 396.789 644.23 394.211C644.23 391.305 645.578 388.938 648.273 387.109C651.18 385.141 655.258 384.156 660.508 384.156C663.156 384.156 665.828 384.344 668.523 384.719V390.73C665.57 390.191 662.992 389.922 660.789 389.922C658.609 389.922 656.91 390.062 655.691 390.344C654.496 390.625 653.594 390.977 652.984 391.398C652.023 392.055 651.543 392.91 651.543 393.965C651.543 394.996 651.871 395.84 652.527 396.496C653.207 397.129 654.262 397.82 655.691 398.57L660.859 401.066C664.234 402.824 666.402 404.172 667.363 405.109C669.191 406.891 670.105 409.129 670.105 411.824C670.105 414.707 668.652 417.027 665.746 418.785C662.699 420.637 658.445 421.562 652.984 421.562ZM693.133 415.445C693.906 415.727 695.078 415.867 696.648 415.867C698.219 415.867 699.531 415.68 700.586 415.305V420.93C700.094 421.047 699.379 421.117 698.441 421.141L696.227 421.211C695.734 421.211 695.359 421.211 695.102 421.211C690.578 421.211 687.238 419.734 685.082 416.781C683.348 414.391 682.48 411.227 682.48 407.289V390.098H677.277V386.793L682.48 384.719L684.168 375.719H689.512V384.719H700.762V390.098H689.512V407.254C689.512 411.848 690.719 414.578 693.133 415.445ZM719.008 421.562C716.078 421.562 713.113 421.352 710.113 420.93V414.707C713.16 415.434 716.254 415.797 719.395 415.797C725.676 415.797 728.816 414.473 728.816 411.824C728.816 410.816 728.57 410.066 728.078 409.574C727.352 408.801 726.203 408.027 724.633 407.254L719.5 404.898C716.172 403.234 714.016 401.898 713.031 400.891C711.18 399.016 710.254 396.789 710.254 394.211C710.254 391.305 711.602 388.938 714.297 387.109C717.203 385.141 721.281 384.156 726.531 384.156C729.18 384.156 731.852 384.344 734.547 384.719V390.73C731.594 390.191 729.016 389.922 726.812 389.922C724.633 389.922 722.934 390.062 721.715 390.344C720.52 390.625 719.617 390.977 719.008 391.398C718.047 392.055 717.566 392.91 717.566 393.965C717.566 394.996 717.895 395.84 718.551 396.496C719.23 397.129 720.285 397.82 721.715 398.57L726.883 401.066C730.258 402.824 732.426 404.172 733.387 405.109C735.215 406.891 736.129 409.129 736.129 411.824C736.129 414.707 734.676 417.027 731.77 418.785C728.723 420.637 724.469 421.562 719.008 421.562ZM746.148 370.023H753.18L752.617 406.445H746.711L746.148 370.023ZM749.664 421.879C748.258 421.879 747.086 421.504 746.148 420.754C745.234 419.98 744.777 418.879 744.777 417.449C744.777 415.996 745.234 414.883 746.148 414.109C747.086 413.336 748.258 412.949 749.664 412.949C751.094 412.949 752.277 413.336 753.215 414.109C754.152 414.883 754.621 415.996 754.621 417.449C754.621 418.879 754.152 419.98 753.215 420.754C752.277 421.504 751.094 421.879 749.664 421.879Z" fill="#FF8F34"/>
</svg>
